<svg width="125.000000" height="124.000000" viewBox="0 0 125 124" fill="none" xmlns="http://www.w3.org/2000/svg" xmlns:xlink="http://www.w3.org/1999/xlink">
	<desc>
			Created with Pixso.
	</desc>
	<defs>
		<filter id="filter_160_2712_dd" x="0.000000" y="0.000000" width="125.000000" height="124.000000" filterUnits="userSpaceOnUse" color-interpolation-filters="sRGB">
			<feFlood flood-opacity="0" result="BackgroundImageFix"/>
			<feGaussianBlur in="BackgroundImage" stdDeviation="1.33333"/>
			<feComposite in2="SourceAlpha" operator="in" result="effect_backgroundBlur_1"/>
			<feBlend mode="normal" in="SourceGraphic" in2="effect_backgroundBlur_1" result="shape"/>
		</filter>
		<linearGradient x1="-18.987350" y1="4.708832" x2="118.670883" y2="116.151886" id="paint_linear_160_2712_0" gradientUnits="userSpaceOnUse">
			<stop stop-color="#FFFFFF"/>
			<stop offset="1.000000" stop-color="#FFFFFF" stop-opacity="0.600000"/>
		</linearGradient>
		<linearGradient x1="-143.987335" y1="-19.620300" x2="124.999969" y2="62.000061" id="paint_linear_160_2712_1" gradientUnits="userSpaceOnUse">
			<stop stop-color="#FFFFFF" stop-opacity="0.200000"/>
			<stop offset="1.000000" stop-color="#FFFFFF" stop-opacity="0.000000"/>
		</linearGradient>
		<linearGradient x1="62.500031" y1="44.000000" x2="97.928604" y2="158.697662" id="paint_linear_160_2713_0" gradientUnits="userSpaceOnUse">
			<stop offset="0.156000" stop-color="#333333"/>
			<stop offset="1.000000" stop-color="#FFFFFF"/>
		</linearGradient>
	</defs>
	<g filter="url(#filter_160_2712_dd)">
		<ellipse id="Ellipse 45" cx="62.500000" cy="62.000000" rx="62.500000" ry="62.000000" fill="url(#paint_linear_160_2712_0)" fill-opacity="1.000000"/>
		<ellipse id="Ellipse 45" cx="62.500000" cy="62.000000" rx="62.000000" ry="61.500000" stroke="url(#paint_linear_160_2712_1)" stroke-opacity="1.000000" stroke-width="1.000000"/>
	</g>
	<path id="Перейти" d="M29.75 71L29.75 55.49L20.12 55.49L20.12 71L18 71L18 53.5L31.87 53.5L31.87 71L29.75 71ZM76.81 53.94Q76.79 53.78 76.79 53.62L78.57 53.62C78.57 53.84 78.63 54.09 78.74 54.39C78.86 54.68 79.08 54.93 79.39 55.16C79.71 55.38 80.16 55.49 80.74 55.49C81.33 55.49 81.78 55.38 82.09 55.16C82.41 54.93 82.63 54.68 82.74 54.39C82.86 54.09 82.92 53.84 82.92 53.62L84.7 53.62Q84.7 53.78 84.68 53.94Q84.62 54.62 84.26 55.28Q84.18 55.43 84.09 55.56Q83.66 56.19 82.94 56.61Q82.07 57.12 80.74 57.12C79.88 57.12 79.15 56.95 78.56 56.61C77.97 56.27 77.53 55.83 77.23 55.28Q76.88 54.62 76.81 53.94ZM85.5 58.62L77.87 66.95L77.87 59.5L75.87 59.5L75.87 71.87L83.5 63.54L83.5 71L85.5 71L85.5 58.62ZM106.12 58.62L98.49 66.95L98.49 59.5L96.5 59.5L96.5 71.87L104.12 63.54L104.12 71L106.12 71L106.12 58.62ZM36.79 65.75L45.85 65.75C45.86 65.64 45.87 65.54 45.87 65.45L45.87 65.15C45.87 63.93 45.64 62.89 45.19 62.01C44.74 61.13 44.11 60.45 43.29 59.97Q43.22 59.93 43.15 59.89Q41.97 59.25 40.44 59.25C39.46 59.25 38.58 59.45 37.78 59.84Q37.13 60.17 36.6 60.65Q36.18 61.04 35.84 61.52C35.34 62.24 35.01 63.07 34.85 64.02C34.81 64.22 34.79 64.42 34.77 64.62Q34.74 64.92 34.74 65.25Q34.74 66.94 35.43 68.29Q35.44 68.31 35.46 68.33C35.93 69.24 36.58 69.95 37.4 70.47C38.23 70.99 39.16 71.25 40.19 71.25C41.19 71.25 42.03 71.13 42.7 70.89C43.36 70.64 43.93 70.3 44.39 69.86C44.86 69.42 45.29 68.9 45.67 68.32L44.04 67.3C43.8 67.71 43.5 68.07 43.15 68.38C42.8 68.69 42.4 68.93 41.96 69.11C41.52 69.28 41.01 69.37 40.44 69.37C39.69 69.37 39.05 69.21 38.5 68.9C37.95 68.58 37.52 68.11 37.22 67.5Q36.86 66.75 36.79 65.75ZM36.84 64.04C36.9 63.51 37.05 63.04 37.31 62.63C37.63 62.11 38.07 61.71 38.62 61.42C39.17 61.14 39.78 61 40.44 61C41.11 61 41.67 61.13 42.13 61.39C42.59 61.64 42.95 62 43.2 62.46C43.46 62.92 43.63 63.45 43.7 64.04L36.84 64.04ZM59.34 62.04C59.86 62.93 60.12 64 60.12 65.25C60.12 66.48 59.86 67.54 59.34 68.44C58.83 69.34 58.14 70.03 57.28 70.52C56.43 71 55.47 71.25 54.42 71.25Q53.36 71.25 52.48 70.84Q52.18 70.7 51.91 70.52C51.34 70.14 50.87 69.63 50.49 69L50.49 76.49L48.5 76.49L48.5 59.5L50.49 59.5L50.49 61.49C50.87 60.85 51.34 60.35 51.91 59.97C52.63 59.49 53.47 59.25 54.42 59.25C55.47 59.25 56.43 59.49 57.28 59.97C58.14 60.45 58.83 61.14 59.34 62.04ZM50.49 65.25C50.49 64.36 50.68 63.61 51.04 63C51.41 62.38 51.88 61.91 52.45 61.6C53.01 61.28 53.59 61.12 54.17 61.12Q55 61.12 55.72 61.41Q55.93 61.49 56.13 61.6C56.72 61.91 57.2 62.38 57.55 63C57.92 63.61 58.1 64.36 58.1 65.25C58.1 66.13 57.92 66.88 57.55 67.5C57.2 68.11 56.72 68.58 56.13 68.9Q55.93 69 55.72 69.09Q55 69.37 54.17 69.37C53.59 69.37 53.01 69.21 52.45 68.9C51.88 68.58 51.41 68.11 51.04 67.5Q50.49 66.57 50.49 65.25ZM63.91 65.75L72.97 65.75C72.99 65.64 72.99 65.54 72.99 65.45L72.99 65.15C72.99 63.93 72.77 62.89 72.32 62.01C71.87 61.13 71.24 60.45 70.42 59.97C69.6 59.49 68.65 59.25 67.57 59.25C66.59 59.25 65.7 59.45 64.91 59.84Q64.25 60.17 63.73 60.65Q63.3 61.04 62.97 61.52C62.47 62.24 62.14 63.07 61.97 64.02C61.94 64.22 61.91 64.42 61.89 64.62C61.88 64.82 61.87 65.03 61.87 65.25Q61.87 66.94 62.56 68.29Q62.57 68.31 62.58 68.33C63.06 69.24 63.71 69.95 64.53 70.47C65.35 70.99 66.28 71.25 67.32 71.25C68.32 71.25 69.15 71.13 69.82 70.89C70.49 70.64 71.05 70.3 71.52 69.86C71.99 69.42 72.41 68.9 72.79 68.32L71.17 67.3C70.92 67.71 70.62 68.07 70.27 68.38C69.92 68.69 69.53 68.93 69.08 69.11C68.64 69.28 68.14 69.37 67.57 69.37C66.82 69.37 66.17 69.21 65.62 68.9C65.07 68.58 64.65 68.11 64.35 67.5C64.1 67 63.96 66.42 63.91 65.75ZM63.97 64.04C64.02 63.51 64.18 63.04 64.43 62.63C64.76 62.11 65.19 61.71 65.74 61.42C66.29 61.14 66.9 61 67.57 61C68.24 61 68.8 61.13 69.25 61.39C69.71 61.64 70.07 62 70.33 62.46C70.59 62.92 70.75 63.45 70.82 64.04L63.97 64.04ZM87.62 61.37L87.62 59.5L94.37 59.5L94.37 61.37L91.99 61.37L91.99 71L90 71L90 61.37L87.62 61.37Z" fill="url(#paint_linear_160_2713_0)" fill-opacity="1.000000" fill-rule="evenodd"/>
</svg>
