<svg width="24.000000" height="24.000000" viewBox="0 0 24 24" fill="none" xmlns="http://www.w3.org/2000/svg" xmlns:xlink="http://www.w3.org/1999/xlink">
	<desc>
			Created with Pixso.
	</desc>
	<defs>
		<clipPath id="clip170_564">
			<rect id="Frame" rx="0.500000" width="24.000000" height="18.297873" transform="translate(0.000000 3.000000)" fill="white" fill-opacity="0"/>
		</clipPath>
	</defs>
	<rect id="Frame" rx="0.500000" width="24.000000" height="18.297873" transform="translate(0.000000 3.000000)" fill="#FFFFFF" fill-opacity="0"/>
	<g clip-path="url(#clip170_564)">
		<path id="Vector" d="M22.5 4.59L22.5 13.4C22.5 13.45 22.45 13.5 22.4 13.5L11.59 13.5C11.54 13.5 11.5 13.45 11.5 13.4L11.5 4.59C11.5 4.54 11.54 4.5 11.59 4.5L22.4 4.5C22.45 4.5 22.5 4.54 22.5 4.59ZM23.9 3L9.71 3C9.66 3 9.61 3.04 9.61 3.09L9.61 15.07C9.61 15.12 9.66 15.16 9.71 15.16L23.9 15.16C23.95 15.16 24 15.12 24 15.07L24 3.09C24 3.04 23.95 3 23.9 3Z" fill="#212227" fill-opacity="1.000000" fill-rule="nonzero"/>
		<path id="Vector" d="M16.04 17.5L10.95 17.5C10.47 17.5 10 17.18 10 16.75C10 16.31 10.39 16 10.95 16L16.04 16C16.52 16 17 16.31 17 16.75C17 17.18 16.6 17.5 16.04 17.5Z" fill="#212227" fill-opacity="1.000000" fill-rule="nonzero"/>
		<path id="Vector" d="M20.08 17.89C20.5 17.89 20.93 18.23 20.93 18.74C20.93 19.16 20.59 19.59 20.08 19.59C19.66 19.59 19.23 19.25 19.23 18.75L19.23 18.73C19.32 18.23 19.66 17.89 20.08 17.89ZM20.08 16.19C18.72 16.19 17.53 17.29 17.53 18.74C17.53 20.1 18.63 21.29 20.08 21.29C21.44 21.29 22.63 20.19 22.63 18.74C22.63 17.29 21.53 16.19 20.08 16.19Z" fill="#212227" fill-opacity="1.000000" fill-rule="nonzero"/>
		<path id="Vector" d="M7 8.6L7 13.87C7 13.94 6.94 13.98 6.88 13.97C4.57 13.57 2.72 15.05 1.68 16.28C1.62 16.35 1.5 16.3 1.5 16.21L1.5 13.02C1.5 13 1.51 12.99 1.51 12.97L4.05 8.55C4.07 8.51 4.1 8.5 4.14 8.5L6.9 8.5C6.95 8.5 7 8.54 7 8.6ZM8.24 7L2.86 7C2.83 7 2.79 7.02 2.78 7.05L0.01 12.51C0.01 12.52 0 12.54 0 12.55L0 17.3C0 17.91 0.49 18.4 1.09 18.4L2.71 18.4C2.76 18.4 2.81 18.36 2.81 18.31C3.03 16.56 4.54 15.16 6.38 15.16C7.08 15.16 7.64 15.38 8.18 15.68C8.25 15.71 8.33 15.67 8.33 15.59L8.33 7.09C8.33 7.04 8.29 7 8.24 7Z" fill="#212227" fill-opacity="1.000000" fill-rule="nonzero"/>
		<path id="Vector" d="M6.38 17.89C6.8 17.89 7.23 18.23 7.23 18.74C7.23 19.16 6.89 19.59 6.38 19.59C5.95 19.59 5.53 19.25 5.53 18.74C5.53 18.23 5.87 17.89 6.38 17.89ZM6.38 16.19C5.02 16.19 3.83 17.29 3.83 18.74C3.83 20.1 4.93 21.29 6.38 21.29C7.74 21.29 8.93 20.19 8.93 18.74C8.85 17.29 7.74 16.19 6.38 16.19Z" fill="#212227" fill-opacity="1.000000" fill-rule="nonzero"/>
	</g>
</svg>
