<svg width="24.000000" height="24.000000" viewBox="0 0 24 24" fill="none" xmlns="http://www.w3.org/2000/svg" xmlns:xlink="http://www.w3.org/1999/xlink">
	<desc>
			Created with Pixso.
	</desc>
	<defs/>
	<path id="Icon" d="M14.6 3.25C14.8 3.25 14.99 3.32 15.13 3.46L17.96 6.29C18.25 6.59 18.25 7.06 17.96 7.35L8.77 16.55C8.67 16.64 8.56 16.71 8.43 16.74L4.6 17.74C4.34 17.81 4.07 17.73 3.88 17.55C3.69 17.36 3.62 17.08 3.68 16.83L4.68 13C4.72 12.87 4.78 12.75 4.88 12.66L14.07 3.46C14.21 3.32 14.4 3.25 14.6 3.25ZM14.6 5.06L6.08 13.57L5.46 15.97L7.85 15.34L16.37 6.82L14.6 5.06ZM3.25 20C3.25 19.58 3.58 19.25 4 19.25L19 19.25C19.41 19.25 19.75 19.58 19.75 20C19.75 20.41 19.41 20.75 19 20.75L4 20.75C3.58 20.75 3.25 20.41 3.25 20Z" fill="#000000" fill-opacity="1.000000" fill-rule="evenodd"/>
</svg>
