<svg width="24.000000" height="24.000000" viewBox="0 0 24 24" fill="none" xmlns="http://www.w3.org/2000/svg" xmlns:xlink="http://www.w3.org/1999/xlink">
	<desc>
			Created with Pixso.
	</desc>
	<defs/>
	<path id="Icon" d="M19.18 4.91L12 4.75L4.81 4.91C3.48 4.94 2.35 5.9 2.11 7.21C1.53 10.37 1.53 13.62 2.11 16.78C2.35 18.09 3.48 19.05 4.81 19.08L12 19.25L19.18 19.08C20.51 19.05 21.64 18.09 21.88 16.78C22.46 13.62 22.46 10.37 21.88 7.21C21.64 5.9 20.51 4.94 19.18 4.91ZM4.85 6.41L12 6.25L19.15 6.41C19.77 6.42 20.29 6.87 20.4 7.48C20.56 8.31 20.67 9.15 20.74 10L3.26 10C3.33 9.15 3.43 8.31 3.59 7.48C3.7 6.87 4.23 6.42 4.85 6.41ZM3.18 12C3.18 13.51 3.31 15.02 3.59 16.51C3.7 17.12 4.23 17.57 4.85 17.58L12 17.75L19.15 17.58C19.77 17.57 20.29 17.12 20.4 16.51C20.68 15.02 20.82 13.51 20.82 12L3.18 12Z" fill="#000000" fill-opacity="1.000000" fill-rule="evenodd"/>
</svg>
