<svg width="24.000000" height="24.000000" viewBox="0 0 24 24" fill="none" xmlns="http://www.w3.org/2000/svg" xmlns:xlink="http://www.w3.org/1999/xlink">
	<desc>
			Created with Pixso.
	</desc>
	<defs/>
	<path id="Icon" d="M12 3.25C9.65 3.25 7.75 5.15 7.75 7.5C7.75 9.84 9.65 11.75 12 11.75C14.34 11.75 16.25 9.84 16.25 7.5C16.25 5.15 14.34 3.25 12 3.25ZM9.25 7.5C9.25 5.98 10.48 4.75 12 4.75C13.51 4.75 14.75 5.98 14.75 7.5C14.75 9.01 13.51 10.25 12 10.25C10.48 10.25 9.25 9.01 9.25 7.5ZM8 13.25C5.92 13.25 4.25 14.92 4.25 17L4.25 18.18C4.25 18.94 4.79 19.58 5.53 19.7C9.81 20.4 14.18 20.4 18.46 19.7C19.2 19.58 19.75 18.94 19.75 18.18L19.75 17C19.75 14.92 18.07 13.25 16 13.25L15.65 13.25C15.47 13.25 15.29 13.27 15.11 13.33L14.25 13.61C12.78 14.09 11.21 14.09 9.75 13.61L8.88 13.33C8.7 13.27 8.52 13.25 8.34 13.25L8 13.25ZM5.75 17C5.75 15.75 6.75 14.75 8 14.75L8.34 14.75C8.36 14.75 8.39 14.75 8.41 14.76L9.28 15.04C11.04 15.62 12.95 15.62 14.71 15.04L15.58 14.76C15.6 14.75 15.63 14.75 15.65 14.75L16 14.75C17.24 14.75 18.25 15.75 18.25 17L18.25 18.18C18.25 18.2 18.23 18.22 18.21 18.22C14.09 18.89 9.9 18.89 5.78 18.22C5.76 18.22 5.75 18.2 5.75 18.18L5.75 17Z" fill="#000000" fill-opacity="1.000000" fill-rule="evenodd"/>
</svg>
