<svg width="17.011719" height="20.666992" viewBox="0 0 17.0117 20.667" fill="none" xmlns="http://www.w3.org/2000/svg" xmlns:xlink="http://www.w3.org/1999/xlink">
	<desc>
			Created with Pixso.
	</desc>
	<defs/>
	<path id="Icon" d="M8.28 0C3.97 0 0.38 3.3 0.02 7.6C-0.17 9.91 0.55 12.2 2.01 14L6.81 19.86C7.68 20.93 9.32 20.93 10.19 19.86L14.99 14C16.45 12.2 17.17 9.91 16.98 7.6C16.62 3.3 13.03 0 8.72 0L8.28 0ZM1.52 7.73C1.81 4.2 4.75 1.5 8.28 1.5L8.72 1.5C12.25 1.5 15.19 4.2 15.48 7.73C15.64 9.65 15.05 11.56 13.83 13.05L9.03 18.91C8.76 19.25 8.24 19.25 7.97 18.91L3.18 13.05C1.96 11.56 1.36 9.65 1.52 7.73ZM8.5 4C5.88 4 3.75 6.12 3.75 8.75C3.75 11.37 5.88 13.5 8.5 13.5C11.12 13.5 13.25 11.37 13.25 8.75C13.25 6.12 11.12 4 8.5 4ZM5.25 8.75C5.25 6.95 6.71 5.5 8.5 5.5C10.3 5.5 11.75 6.95 11.75 8.75C11.75 10.54 10.3 12 8.5 12C6.71 12 5.25 10.54 5.25 8.75Z" fill="#000000" fill-opacity="1.000000" fill-rule="evenodd"/>
</svg>
